<svg width="102" height="40" viewBox="0 0 102 40" fill="none" xmlns="http://www.w3.org/2000/svg">
<rect x="0.5" y="0.5" width="101" height="39" rx="19.5" stroke="#32BCA3"/>
<path d="M37.0426 15.576C37.9919 15.576 38.7866 15.6667 39.4266 15.848C40.0772 16.0293 40.5626 16.328 40.8826 16.744C41.2132 17.16 41.3786 17.7147 41.3786 18.408C41.3786 18.856 41.2932 19.256 41.1226 19.608C40.9626 19.9493 40.7172 20.2373 40.3866 20.472C40.0666 20.696 39.6719 20.8507 39.2026 20.936V21.016C39.6826 21.0907 40.1146 21.2293 40.4986 21.432C40.8932 21.6347 41.2026 21.9227 41.4266 22.296C41.6506 22.6693 41.7626 23.1547 41.7626 23.752C41.7626 24.4453 41.6026 25.0373 41.2826 25.528C40.9626 26.008 40.5039 26.376 39.9066 26.632C39.3199 26.8773 38.6159 27 37.7946 27H33.7786V15.576H37.0426ZM37.3306 20.44C38.3119 20.44 38.9839 20.2853 39.3466 19.976C39.7092 19.656 39.8906 19.1867 39.8906 18.568C39.8906 17.9387 39.6666 17.4907 39.2186 17.224C38.7812 16.9467 38.0772 16.808 37.1066 16.808H35.2186V20.44H37.3306ZM35.2186 21.64V25.784H37.5226C38.5359 25.784 39.2399 25.5867 39.6346 25.192C40.0292 24.7973 40.2266 24.28 40.2266 23.64C40.2266 23.2347 40.1359 22.8827 39.9546 22.584C39.7839 22.2853 39.4906 22.056 39.0746 21.896C38.6692 21.7253 38.1146 21.64 37.4106 21.64H35.2186ZM46.0248 22.616L43.0648 18.424H44.6648L46.8728 21.656L49.0648 18.424H50.6488L47.6888 22.616L50.8088 27H49.2088L46.8728 23.576L44.5048 27H42.9208L46.0248 22.616ZM59.6051 22.696C59.6051 23.4107 59.5091 24.0453 59.3171 24.6C59.1357 25.144 58.8691 25.608 58.5171 25.992C58.1757 26.376 57.7544 26.6693 57.2531 26.872C56.7624 27.064 56.2131 27.16 55.6051 27.16C55.0397 27.16 54.5171 27.064 54.0371 26.872C53.5571 26.6693 53.1411 26.376 52.7891 25.992C52.4371 25.608 52.1597 25.144 51.9571 24.6C51.7651 24.0453 51.6691 23.4107 51.6691 22.696C51.6691 21.7467 51.8291 20.9467 52.1491 20.296C52.4691 19.6347 52.9277 19.1333 53.5251 18.792C54.1224 18.44 54.8317 18.264 55.6531 18.264C56.4317 18.264 57.1144 18.44 57.7011 18.792C58.2984 19.1333 58.7624 19.6347 59.0931 20.296C59.4344 20.9467 59.6051 21.7467 59.6051 22.696ZM53.1251 22.696C53.1251 23.368 53.2104 23.9547 53.3811 24.456C53.5624 24.9467 53.8397 25.3253 54.2131 25.592C54.5864 25.8587 55.0611 25.992 55.6371 25.992C56.2131 25.992 56.6877 25.8587 57.0611 25.592C57.4344 25.3253 57.7064 24.9467 57.8771 24.456C58.0584 23.9547 58.1491 23.368 58.1491 22.696C58.1491 22.0133 58.0584 21.432 57.8771 20.952C57.6957 20.472 57.4184 20.104 57.0451 19.848C56.6824 19.5813 56.2077 19.448 55.6211 19.448C54.7464 19.448 54.1117 19.736 53.7171 20.312C53.3224 20.888 53.1251 21.6827 53.1251 22.696ZM68.2046 18.424V25.816H69.4526V29.976H68.0926V27H62.1246V29.976H60.7806V25.816H61.4686C61.9592 25.1333 62.3646 24.392 62.6846 23.592C63.0152 22.7813 63.2606 21.9387 63.4206 21.064C63.5912 20.1787 63.6819 19.2987 63.6926 18.424H68.2046ZM64.9406 19.528C64.8979 20.2533 64.7859 21.0053 64.6046 21.784C64.4232 22.552 64.1886 23.288 63.9006 23.992C63.6232 24.696 63.2979 25.304 62.9246 25.816H66.8446V19.528H64.9406Z" fill="#32BCA3"/>
</svg>
