<svg width="164" height="40" viewBox="0 0 164 40" fill="none" xmlns="http://www.w3.org/2000/svg">
<rect width="164" height="40" rx="20" fill="#32BCA3"/>
<path d="M36.8963 15.576C38.3896 15.576 39.4776 15.8693 40.1603 16.456C40.843 17.0427 41.1843 17.8693 41.1843 18.936C41.1843 19.4053 41.1043 19.8587 40.9443 20.296C40.795 20.7227 40.5443 21.1067 40.1923 21.448C39.8403 21.7893 39.371 22.0613 38.7843 22.264C38.1976 22.456 37.4776 22.552 36.6243 22.552H35.3123V27H33.8723V15.576H36.8963ZM36.7683 16.808H35.3123V21.32H36.4643C37.1896 21.32 37.7923 21.2453 38.2723 21.096C38.7523 20.936 39.1096 20.6853 39.3443 20.344C39.579 20.0027 39.6963 19.5547 39.6963 19C39.6963 18.264 39.4616 17.7147 38.9923 17.352C38.523 16.9893 37.7816 16.808 36.7683 16.808ZM46.6798 18.264C47.4158 18.264 48.0451 18.424 48.5678 18.744C49.1011 19.064 49.5065 19.5173 49.7838 20.104C50.0718 20.68 50.2158 21.3573 50.2158 22.136V22.984H44.3438C44.3651 23.9547 44.6105 24.696 45.0798 25.208C45.5598 25.7093 46.2265 25.96 47.0798 25.96C47.6238 25.96 48.1038 25.912 48.5198 25.816C48.9465 25.7093 49.3838 25.56 49.8318 25.368V26.6C49.3945 26.792 48.9625 26.9307 48.5358 27.016C48.1091 27.112 47.6025 27.16 47.0158 27.16C46.2051 27.16 45.4851 26.9947 44.8558 26.664C44.2371 26.3333 43.7518 25.8427 43.3998 25.192C43.0585 24.5307 42.8878 23.7253 42.8878 22.776C42.8878 21.8373 43.0425 21.032 43.3518 20.36C43.6718 19.688 44.1145 19.1707 44.6798 18.808C45.2558 18.4453 45.9225 18.264 46.6798 18.264ZM46.6638 19.416C45.9918 19.416 45.4585 19.6347 45.0638 20.072C44.6798 20.4987 44.4505 21.096 44.3758 21.864H48.7438C48.7438 21.3733 48.6691 20.9467 48.5198 20.584C48.3705 20.2213 48.1411 19.9387 47.8318 19.736C47.5331 19.5227 47.1438 19.416 46.6638 19.416ZM57.6311 18.424V19.608H53.8071V27H52.3991V18.424H57.6311ZM60.6489 23.656C60.6489 23.752 60.6436 23.8907 60.6329 24.072C60.6329 24.2427 60.6276 24.4293 60.6169 24.632C60.6063 24.824 60.5956 25.0107 60.5849 25.192C60.5743 25.3627 60.5636 25.5013 60.5529 25.608L65.1449 18.424H66.8729V27H65.5609V21.944C65.5609 21.7733 65.5609 21.5493 65.5609 21.272C65.5716 20.9947 65.5823 20.7227 65.5929 20.456C65.6036 20.1787 65.6143 19.9707 65.6249 19.832L61.0649 27H59.3209V18.424H60.6489V23.656ZM73.0422 27.16C72.2849 27.16 71.6075 27.0053 71.0102 26.696C70.4235 26.3867 69.9595 25.9067 69.6182 25.256C69.2875 24.6053 69.1222 23.7733 69.1222 22.76C69.1222 21.704 69.2982 20.8453 69.6502 20.184C70.0022 19.5227 70.4769 19.0373 71.0742 18.728C71.6822 18.4187 72.3702 18.264 73.1382 18.264C73.5755 18.264 73.9969 18.312 74.4022 18.408C74.8075 18.4933 75.1382 18.6 75.3942 18.728L74.9622 19.896C74.7062 19.8 74.4075 19.7093 74.0662 19.624C73.7249 19.5387 73.4049 19.496 73.1062 19.496C72.5302 19.496 72.0555 19.6187 71.6822 19.864C71.3089 20.1093 71.0315 20.472 70.8502 20.952C70.6689 21.432 70.5782 22.0293 70.5782 22.744C70.5782 23.4267 70.6689 24.008 70.8502 24.488C71.0315 24.968 71.3035 25.3307 71.6662 25.576C72.0289 25.8213 72.4822 25.944 73.0262 25.944C73.4955 25.944 73.9062 25.896 74.2582 25.8C74.6209 25.704 74.9515 25.5867 75.2502 25.448V26.696C74.9622 26.8453 74.6422 26.9573 74.2902 27.032C73.9489 27.1173 73.5329 27.16 73.0422 27.16ZM83.2097 19.608H80.4097V27H79.0177V19.608H76.2497V18.424H83.2097V19.608ZM88.9791 18.264C90.0351 18.264 90.8831 18.632 91.5231 19.368C92.1737 20.104 92.4991 21.2133 92.4991 22.696C92.4991 23.6667 92.3497 24.488 92.0511 25.16C91.7631 25.8213 91.3524 26.3227 90.8191 26.664C90.2964 26.9947 89.6777 27.16 88.9631 27.16C88.5257 27.16 88.1364 27.1013 87.7951 26.984C87.4537 26.8667 87.1604 26.7173 86.9151 26.536C86.6804 26.344 86.4777 26.136 86.3071 25.912H86.2111C86.2324 26.0933 86.2537 26.3227 86.2751 26.6C86.2964 26.8773 86.3071 27.1173 86.3071 27.32V30.84H84.8991V18.424H86.0511L86.2431 19.592H86.3071C86.4777 19.3467 86.6804 19.1227 86.9151 18.92C87.1604 18.7173 87.4484 18.5573 87.7791 18.44C88.1204 18.3227 88.5204 18.264 88.9791 18.264ZM88.7231 19.448C88.1471 19.448 87.6831 19.56 87.3311 19.784C86.9791 19.9973 86.7231 20.3227 86.5631 20.76C86.4031 21.1973 86.3177 21.752 86.3071 22.424V22.696C86.3071 23.4 86.3817 23.9973 86.5311 24.488C86.6804 24.9787 86.9311 25.352 87.2831 25.608C87.6457 25.864 88.1364 25.992 88.7551 25.992C89.2777 25.992 89.7044 25.848 90.0351 25.56C90.3764 25.272 90.6271 24.8827 90.7871 24.392C90.9577 23.8907 91.0431 23.32 91.0431 22.68C91.0431 21.6987 90.8511 20.9147 90.4671 20.328C90.0937 19.7413 89.5124 19.448 88.7231 19.448ZM97.9908 18.28C99.0361 18.28 99.8095 18.5093 100.311 18.968C100.812 19.4267 101.063 20.1573 101.063 21.16V27H100.039L99.7668 25.784H99.7028C99.4575 26.0933 99.2015 26.3547 98.9348 26.568C98.6788 26.7707 98.3801 26.92 98.0388 27.016C97.7081 27.112 97.3028 27.16 96.8228 27.16C96.3108 27.16 95.8468 27.0693 95.4308 26.888C95.0255 26.7067 94.7055 26.4293 94.4708 26.056C94.2361 25.672 94.1188 25.192 94.1188 24.616C94.1188 23.7627 94.4548 23.1067 95.1268 22.648C95.7988 22.1787 96.8335 21.9227 98.2308 21.88L99.6868 21.832V21.32C99.6868 20.6053 99.5321 20.1093 99.2228 19.832C98.9135 19.5547 98.4761 19.416 97.9108 19.416C97.4628 19.416 97.0361 19.4853 96.6308 19.624C96.2255 19.752 95.8468 19.9013 95.4948 20.072L95.0628 19.016C95.4361 18.8133 95.8788 18.6427 96.3908 18.504C96.9028 18.3547 97.4361 18.28 97.9908 18.28ZM98.4068 22.856C97.3401 22.8987 96.5988 23.0693 96.1828 23.368C95.7775 23.6667 95.5748 24.088 95.5748 24.632C95.5748 25.112 95.7188 25.464 96.0068 25.688C96.3055 25.912 96.6841 26.024 97.1428 26.024C97.8681 26.024 98.4708 25.8267 98.9508 25.432C99.4308 25.0267 99.6708 24.408 99.6708 23.576V22.808L98.4068 22.856ZM112.176 29.976H110.8V27H103.712V18.424H105.12V25.816H109.552V18.424H110.96V25.832H112.176V29.976ZM115.149 23.656C115.149 23.752 115.144 23.8907 115.133 24.072C115.133 24.2427 115.128 24.4293 115.117 24.632C115.106 24.824 115.096 25.0107 115.085 25.192C115.074 25.3627 115.064 25.5013 115.053 25.608L119.645 18.424H121.373V27H120.061V21.944C120.061 21.7733 120.061 21.5493 120.061 21.272C120.072 20.9947 120.082 20.7227 120.093 20.456C120.104 20.1787 120.114 19.9707 120.125 19.832L115.565 27H113.821V18.424H115.149V23.656ZM124.63 27H122.998L125.446 23.4C125.116 23.3147 124.796 23.1813 124.486 23C124.177 22.808 123.926 22.5467 123.734 22.216C123.542 21.8747 123.446 21.4533 123.446 20.952C123.446 20.1307 123.724 19.5067 124.278 19.08C124.833 18.6427 125.569 18.424 126.486 18.424H130.326V27H128.918V23.592H126.838L124.63 27ZM124.806 20.968C124.806 21.4587 124.988 21.8267 125.35 22.072C125.724 22.3067 126.241 22.424 126.902 22.424H128.918V19.592H126.63C125.98 19.592 125.51 19.72 125.222 19.976C124.945 20.232 124.806 20.5627 124.806 20.968Z" fill="white"/>
</svg>
